<svg width="144" height="144" viewBox="0 0 144 144" fill="none" xmlns="http://www.w3.org/2000/svg">
<rect width="144" height="144" rx="24" fill="url(#paint0_linear_1025_3)"/>
<path d="M109.6 86.1H114.3C116.885 86.1 119 88.215 119 90.847V104.853C119 107.485 116.885 109.6 114.3 109.6H95.5C92.915 109.6 90.8 107.485 90.8 104.853V90.847C90.8 88.215 92.915 86.1 95.5 86.1H100.2V76.7H76.7V86.1H81.4C83.985 86.1 86.1 88.215 86.1 90.847V104.853C86.1 107.485 83.985 109.6 81.4 109.6H62.6C60.015 109.6 57.9 107.485 57.9 104.853V90.847C57.9 88.215 60.015 86.1 62.6 86.1H67.3V76.7H43.8V86.1H48.5C51.085 86.1 53.2 88.215 53.2 90.847V104.853C53.2 107.485 51.085 109.6 48.5 109.6H29.7C27.115 109.6 25 107.485 25 104.853V90.847C25 88.215 27.115 86.1 29.7 86.1H34.4V76.7C34.4 71.53 38.63 67.3 43.8 67.3H67.3V57.9H62.6C60.015 57.9 57.9 55.785 57.9 53.153V39.147C57.9 36.515 60.015 34.4 62.6 34.4H81.4C83.985 34.4 86.1 36.515 86.1 39.147V53.153C86.1 55.785 83.985 57.9 81.4 57.9H76.7V67.3H100.2C105.37 67.3 109.6 71.53 109.6 76.7V86.1Z" fill="white"/>
<defs>
<linearGradient id="paint0_linear_1025_3" x1="142.5" y1="143" x2="3.99999" y2="9.49999" gradientUnits="userSpaceOnUse">
<stop stop-color="#00082E"/>
<stop offset="1" stop-color="#2E3067"/>
</linearGradient>
</defs>
</svg>
