<svg width="144" height="144" viewBox="0 0 144 144" fill="none" xmlns="http://www.w3.org/2000/svg">
<rect width="144" height="144" rx="24" fill="url(#paint0_linear_330_48963)"/>
<g filter="url(#filter0_i_330_48963)">
<path d="M72.0001 26.6367C46.8772 26.6367 26.5112 47.0027 26.5112 72.1256C26.5112 97.2484 46.8772 117.614 72.0001 117.614C97.1229 117.614 117.489 97.2482 117.489 72.1254C117.489 47.0025 97.1229 26.6367 72.0001 26.6367ZM72.0001 81.6212C66.7557 81.6212 62.5044 77.3699 62.5044 72.1256C62.5044 66.8812 66.7557 62.6299 72.0001 62.6299C77.2444 62.6299 81.4957 66.8812 81.4957 72.1256C81.4957 77.3699 77.2444 81.6212 72.0001 81.6212Z" fill="#BAD9FF"/>
</g>
<path d="M52.0075 65.7209L32.2976 59.0498C36.2842 47.2711 45.3285 37.6315 56.491 33.264L64.0728 52.6419C58.642 54.7667 54.019 59.7783 52.0075 65.7209ZM91.9926 78.53L111.703 85.2011C107.716 96.9799 98.6718 106.619 87.5093 110.987L79.9275 91.609C85.3581 89.4842 89.9813 84.4726 91.9926 78.53Z" fill="#EDF6FF"/>
<path d="M55.9324 58.7028C57.6514 56.614 59.7194 54.8632 61.9894 53.6183C63.149 52.9824 64.2633 53.1296 63.7814 51.8979L57.2095 35.1009C56.2909 32.7529 55.2814 33.7285 53.906 34.3868C48.9734 36.7476 44.5349 40.159 40.8601 44.3154L55.9324 58.7028ZM88.0676 85.5481C85.8352 88.2605 83.0148 90.4029 79.9269 91.608L87.5089 110.986C93.4785 108.654 98.8336 104.806 103.14 99.9355L88.0676 85.5481Z" fill="#CDE3FF"/>
<path d="M72 89.4388C62.4534 89.4388 54.6865 81.6721 54.6865 72.1254C54.6865 62.5786 62.4534 54.8119 72 54.8119C81.5468 54.8119 89.3134 62.5788 89.3134 72.1254C89.3134 81.672 81.5468 89.4388 72 89.4388ZM72 59.1105C64.8234 59.1105 58.9849 64.949 58.9849 72.1256C58.9849 79.3022 64.8234 85.1406 72 85.1406C79.1766 85.1406 85.015 79.3022 85.015 72.1256C85.015 64.949 79.1766 59.1105 72 59.1105Z" fill="#00B4FF"/>
<defs>
<filter id="filter0_i_330_48963" x="26.5112" y="26.6367" width="92.9778" height="92.9775" filterUnits="userSpaceOnUse" color-interpolation-filters="sRGB">
<feFlood flood-opacity="0" result="BackgroundImageFix"/>
<feBlend mode="normal" in="SourceGraphic" in2="BackgroundImageFix" result="shape"/>
<feColorMatrix in="SourceAlpha" type="matrix" values="0 0 0 0 0 0 0 0 0 0 0 0 0 0 0 0 0 0 127 0" result="hardAlpha"/>
<feOffset dx="2" dy="2"/>
<feGaussianBlur stdDeviation="2.5"/>
<feComposite in2="hardAlpha" operator="arithmetic" k2="-1" k3="1"/>
<feColorMatrix type="matrix" values="0 0 0 0 1 0 0 0 0 1 0 0 0 0 1 0 0 0 0.21 0"/>
<feBlend mode="normal" in2="shape" result="effect1_innerShadow_330_48963"/>
</filter>
<linearGradient id="paint0_linear_330_48963" x1="-15.5" y1="-12" x2="216.5" y2="185.5" gradientUnits="userSpaceOnUse">
<stop stop-color="#65CCFF"/>
<stop offset="1" stop-color="#044374"/>
</linearGradient>
</defs>
</svg>
